<svg
                xmlns="http://www.w3.org/2000/svg"
                width="50"
                height="50"
                viewBox="0 0 24 24"
                fill="none"
              >
                <g clip-path="url(#clip0_24_11)">
                  <path
                    opacity="0.5"
                    d="M12 0.96C5.90686 0.96 0.96 5.90686 0.96 12C0.96 18.0931 5.90686 23.04 12 23.04C18.0931 23.04 23.04 18.0931 23.04 12C23.04 5.90686 18.0931 0.96 12 0.96"
                    fill="url(#paint0_linear_24_11)"
                  />
                  <path
                    fill-rule="evenodd"
                    clip-rule="evenodd"
                    d="M16.5216 7.6464C16.705 7.0968 16.1827 6.57408 15.6331 6.75744L6.72048 9.72816C6.1512 9.91776 6.06672 10.6882 6.58128 10.9973L9.03888 12.4718C9.30365 12.6308 9.64118 12.5983 9.87072 12.3917L12.4598 10.0618C12.7486 9.80377 13.1916 9.82795 13.4505 10.1158C13.7095 10.4037 13.6867 10.8469 13.3997 11.1067L10.9258 13.333C10.6759 13.5579 10.6204 13.9283 10.7933 14.2166L12.2818 16.6982C12.5909 17.2128 13.3618 17.1283 13.5514 16.559L16.5216 7.6464"
                    fill="white"
                  />
                  <path
                    d="M12.4598 10.0618L11.7542 9.2784L12.4598 10.0618M13.452 10.1141L12.6686 10.8192L13.452 10.1141M13.3997 11.1067L12.6946 10.3229L13.4002 11.1067M10.9258 13.333L10.2206 12.5496L10.9258 13.333M10.7933 14.2166L9.88944 14.759L10.7933 14.2166M16.5216 7.6464L15.5213 7.3128L16.5216 7.6464M7.0536 10.728L15.9662 7.75728L15.299 5.75712L6.38688 8.72832L7.0536 10.728M9.5808 11.568L7.1232 10.0934L6.0384 11.9011L8.496 13.3757L9.5808 11.568M10.5754 13.175L13.1645 10.8451L11.7542 9.2784L9.16512 11.6083L10.5754 13.175M13.1645 10.8451C13.0952 10.9075 13.004 10.9398 12.911 10.935C12.8179 10.9301 12.7305 10.8885 12.6682 10.8192L14.2354 9.40896C13.9236 9.06248 13.487 8.85405 13.0216 8.82957C12.5562 8.80508 12.1001 8.96654 11.7538 9.2784L13.1645 10.8456M12.6682 10.8192C12.6058 10.75 12.5734 10.6588 12.5783 10.5657C12.5832 10.4726 12.6248 10.3852 12.6941 10.3229L14.1043 11.8901C14.4507 11.5784 14.6591 11.142 14.6837 10.6767C14.7083 10.2114 14.547 9.75535 14.2354 9.40896L12.6682 10.8192M12.6941 10.3229L10.2202 12.5496L11.6304 14.1163L14.1043 11.8901L12.6941 10.3229M13.1851 16.1558L11.6966 13.6742L9.88896 14.759L11.3774 17.2406L13.1851 16.1558M15.5213 7.3128L12.5506 16.2254L14.5507 16.8922L17.5219 7.97952L15.5213 7.3128M11.3774 17.2402C12.1502 18.5275 14.076 18.3158 14.5507 16.8922L12.5506 16.225C12.5941 16.0949 12.7093 16.002 12.8457 15.9872C12.9821 15.9723 13.1146 16.0382 13.1851 16.1558L11.3774 17.2406M8.496 13.3762C9.15802 13.7733 10.0017 13.6917 10.5754 13.175L9.16512 11.6083C9.27979 11.5051 9.44842 11.4887 9.5808 11.568L8.496 13.3757M10.2202 12.5496C9.59538 13.112 9.45654 14.0382 9.88896 14.759L11.6966 13.6742C11.783 13.8185 11.7553 14.0037 11.6304 14.1163L10.2202 12.5496M15.9658 7.75728C15.8396 7.79915 15.7005 7.76618 15.6065 7.67211C15.5126 7.57803 15.4798 7.43896 15.5218 7.3128L17.5214 7.97952C17.9794 6.60624 16.6728 5.29968 15.299 5.75712L15.9662 7.75728M6.38688 8.72784C4.96272 9.20304 4.75152 11.1293 6.0384 11.9011L7.1232 10.0934C7.24083 10.164 7.30661 10.2966 7.29165 10.433C7.2767 10.5694 7.18373 10.6846 7.0536 10.728L6.3864 8.72784"
                    fill="white"
                  />
                </g>
                <defs>
                  <linearGradient
                    id="paint0_linear_24_11"
                    x1="12"
                    y1="0.96"
                    x2="12"
                    y2="23.04"
                    gradientUnits="userSpaceOnUse"
                  >
                    <stop stop-color="white" />
                    <stop offset="1" stop-color="white" />
                  </linearGradient>
                  <clipPath id="clip0_24_11">
                    <rect width="24" height="24" fill="white" />
                  </clipPath>
                </defs>
              </svg>